<svg width="1024" height="1024" viewBox="0 0 1024 1024" fill="none" xmlns="http://www.w3.org/2000/svg">
  <!-- 白い背景 -->
  <rect width="1024" height="1024" fill="#ffffff"/>
  
  <!-- メインのフォルダアイコン -->
  <path d="M162 308c-8.837 0-16 7.163-16 16v416c0 44.183 35.817 80 80 80h512c44.183 0 80-35.817 80-80V404c0-44.183-35.817-80-80-80H434l-48-64H226c-35.346 0-64 28.654-64 64z" fill="url(#gradient1)"/>
  
  <!-- 書類が飛び出している表現 -->
  <rect x="380" y="200" width="280" height="360" rx="8" fill="#ffffff" stroke="#ddd" stroke-width="2"/>
  <rect x="400" y="220" width="240" height="12" fill="#0ea5e9"/>
  <rect x="400" y="250" width="180" height="8" fill="#94a3b8"/>
  <rect x="400" y="270" width="200" height="8" fill="#94a3b8"/>
  <rect x="400" y="300" width="160" height="8" fill="#94a3b8"/>
  
  <!-- チェックマーク -->
  <circle cx="680" cy="280" r="35" fill="#22c55e"/>
  <path d="M665 280l10 10 20-20" stroke="#ffffff" stroke-width="6" stroke-linecap="round" stroke-linejoin="round" fill="none"/>
  
  <!-- ペンアイコン -->
  <g transform="translate(750, 420)">
    <path d="M0 40l8-8 24 24-8 8-24-24zm32-32l-8 8 24 24 8-8-24-24z" fill="#0ea5e9"/>
  </g>
  
  <!-- グラデーション定義 -->
  <defs>
    <linearGradient id="gradient1" x1="0%" y1="0%" x2="100%" y2="100%">
      <stop offset="0%" stop-color="#0ea5e9"/>
      <stop offset="50%" stop-color="#3b82f6"/>
      <stop offset="100%" stop-color="#1d4ed8"/>
    </linearGradient>
  </defs>
</svg>